#!OML:ASF X:\für Bonn\!DataBase\2005_08_11_Bastian_Final\c3d\Bastian.ASF
:FULLY-SPECIFIED
:DEGREES
250
root 1.0012 17.4609 -4.37871 169.556 -16.561 -178.812
lowerback 14.7827 -1.61306 -0.671525
upperback 6.38724 -2.98783 0.72805
thorax -1.46108 -1.84459 1.61355
lowerneck -3.01927 -8.11795 -1.36005
upperneck -11.7372 -11.0068 12.3176
head -2.45616 -6.23162 4.41993
rclavicle -3.85332e-014 6.4605e-015
rhumerus -222.681 -162.266 115.792
rradius 51.4349
rwrist -166.043
rhand -19.6161 4.66547
rfingers 7.12502
rthumb 6.71044 -25.2082
lclavicle -3.85332e-014 6.4605e-015
lhumerus -59.1299 39.8257 37.0897
lradius 22.9728
lwrist 148.995
lhand -28.4489 9.77155
lfingers 7.12502
lthumb -1.81943 39.7435
rfemur -21.6376 0.0715721 23.4165
rtibia 38.6699
rfoot -13.816 -10.3297
rtoes -19.469
lfemur 12.2516 2.71691 -18.0398
ltibia 17.6992
lfoot -15.0692 -1.41066
ltoes -2.42076
251
root 1.02384 17.4716 -4.30156 169.472 -16.5344 -178.8
lowerback 14.7024 -1.6085 -0.765912
upperback 6.4046 -2.99435 0.747711
thorax -1.39438 -1.85068 1.68355
lowerneck -2.97334 -8.13965 -1.52123
upperneck -11.5883 -11.0243 12.3361
head -2.40217 -6.223 4.44781
rclavicle 7.82963e-014 -1.32689e-014
rhumerus -222.369 -162.762 115.036
rradius 52.1028
rwrist -166.123
rhand -19.724 4.71044
rfingers 7.12502
rthumb 6.60625 -25.1665
lclavicle 7.82963e-014 -1.32689e-014
lhumerus -57.6512 40.4621 38.4633
lradius 23.1435
lwrist 149.521
lhand -28.036 9.53879
lfingers 7.12502
lthumb -1.4207 39.5138
rfemur -21.3188 -0.921094 23.5653
rtibia 39.1812
rfoot -14.0041 -11.2268
rtoes -17.0085
lfemur 11.8966 2.78315 -18.0138
ltibia 17.9659
lfoot -14.737 -1.37049
ltoes -2.32387
252
root 1.04561 17.4797 -4.22757 169.36 -16.5011 -178.76
lowerback 14.6217 -1.60999 -0.848565
upperback 6.4186 -3.00654 0.795048
thorax -1.32973 -1.85986 1.77672
lowerneck -2.86728 -8.15551 -1.72014
upperneck -11.4731 -11.0293 12.3481
head -2.3698 -6.20839 4.48657
rclavicle -4.34282e-014 1.88348e-014
rhumerus -222.033 -163.399 114.276
rradius 52.7713
rwrist -166.076
rhand -19.9544 4.71334
rfingers 7.12502
rthumb 6.38383 -25.1705
lclavicle -4.34282e-014 1.88348e-014
lhumerus -56.2704 41.1282 39.7742
lradius 23.3437
lwrist 150.287
lhand -27.5714 9.26191
lfingers 7.12502
lthumb -0.971931 39.2394
rfemur -20.9066 -1.90859 23.7276
rtibia 39.7473
rfoot -14.1541 -11.9026
rtoes -14.6301
lfemur 11.5603 2.89016 -17.9443
ltibia 18.2822
lfoot -14.4471 -1.37178
ltoes -2.20179
253
root 1.06564 17.4846 -4.15535 169.26 -16.5024 -178.702
lowerback 14.4945 -1.62114 -0.874983
upperback 6.45081 -3.02512 0.823521
thorax -1.22475 -1.8719 1.81661
lowerneck -2.85587 -8.17719 -1.86033
upperneck -11.3224 -11.0505 12.3518
head -2.3108 -6.20199 4.50343
rclavicle 5.21002e-014 -1.85864e-014
rhumerus -221.674 -164.058 113.454
rradius 53.4626
rwrist -165.931
rhand -20.2232 4.7267
rfingers 7.12502
rthumb 6.12433 -25.1648
lclavicle 5.21002e-014 -1.85864e-014
lhumerus -54.8623 41.8416 41.0558
lradius 23.5635
lwrist 151.176
lhand -26.9604 9.20588
lfingers 7.12502
lthumb -0.38184 39.1853
rfemur -20.4655 -2.91943 23.8739
rtibia 40.3609
rfoot -14.1527 -12.3666
rtoes -12.1973
lfemur 11.1727 2.98547 -17.8635
ltibia 18.6755
lfoot -14.2104 -1.41843
ltoes -2.22094
